<?xml version="1.0" encoding="UTF-8"?>
<svg id="Layer_1" xmlns="http://www.w3.org/2000/svg" version="1.1" viewBox="0 0 24 24">
  <!-- Generator: Adobe Illustrator 29.6.1, SVG Export Plug-In . SVG Version: 2.1.1 Build 9)  -->
  <defs>
    <style>
      .st0 {
        fill: #072222;
      }
    </style>
  </defs>
  <rect class="st0" x=".4" y=".4" width="9.5" height="9.5" rx=".5" ry=".5"/>
  <path class="st0" d="M20.2.4h-7.7c-.3,0-.5.2-.5.5v3.2c0,.3.2.5.5.5h6.5c.2,0,.4.2.4.4v13.7c0,.2-.2.4-.4.4H5.2c-.2,0-.4-.2-.4-.4v-6.2c0-.3-.2-.5-.5-.5H.9c-.3,0-.5.2-.5.5v7.7c0,1.9,1.5,3.4,3.4,3.4h16.4c1.9,0,3.4-1.5,3.4-3.4V3.8c0-1.9-1.5-3.4-3.4-3.4Z"/>
</svg>