<?xml version="1.0" encoding="utf-8"?>
<!-- Generator: Adobe Illustrator 29.6.1, SVG Export Plug-In . SVG Version: 9.03 Build 0)  -->
<svg version="1.0" id="Layer_1" xmlns="http://www.w3.org/2000/svg" xmlns:xlink="http://www.w3.org/1999/xlink" x="0px" y="0px"
	 viewBox="0 0 300 92.1" style="enable-background:new 0 0 300 92.1;" xml:space="preserve">
<style type="text/css">
	.st0{fill:#C79C3E;}
	.st1{fill:#212222;}
	.st2{fill:#BF993F;}
	.st3{fill:#082323;}
</style>
<g>
	<g>
		<g>
			<g>
				<path class="st0" d="M40.2,14.3v6.2c0,1.7-1.4,3.1-3.1,3.1H35v-2.1H37c0.6,0,1.1-0.5,1.1-1.1v-6.2c0-0.6-0.5-1.1-1.1-1.1H35
					c-0.6,0-1.1,0.5-1.1,1.1v2.2c-0.8,0.2-1.5,0.7-2.1,1.3v-3.5c0-1.7,1.4-3.1,3.1-3.1H37C38.8,11.2,40.2,12.6,40.2,14.3L40.2,14.3z
					 M38,24.6v2.2c0,0.6-0.5,1.1-1.1,1.1h-2.1c-0.6,0-1.1-0.5-1.1-1.1v-6.2c0-0.6,0.5-1.1,1.1-1.1H37v-2.1h-2.1
					c-1.7,0-3.1,1.4-3.1,3.1v6.2c0,1.7,1.4,3.1,3.1,3.1H37c1.7,0,3.1-1.4,3.1-3.1v-3.5C39.6,23.9,38.9,24.3,38,24.6L38,24.6z"/>
			</g>
		</g>
		<g>
			<g>
				<g>
					<path class="st1" d="M19.1,29l8.6,0c0.1,0,0.3,0,0.4,0.1c0.1,0.1,0.1,0.2,0.1,0.3c0,0.2,0,0.3-0.1,0.4C28,29.9,27.8,30,27.7,30
						h-9h-0.1c-0.1,0-0.3,0-0.3-0.1c-0.1-0.1-0.1-0.2-0.1-0.4V10.6c0-0.2,0-0.3,0.1-0.4c0.1-0.1,0.2-0.1,0.3-0.1
						c0.1,0,0.3,0,0.4,0.1c0.1,0.1,0.1,0.2,0.1,0.4V29z"/>
					<path class="st1" d="M27.7,30.2h-9.1c-0.2,0-0.4-0.1-0.5-0.2c-0.2-0.1-0.2-0.3-0.2-0.5V10.6c0-0.2,0.1-0.4,0.2-0.6
						c0.3-0.3,0.8-0.3,1.1,0c0.1,0.1,0.2,0.3,0.2,0.6v18.1l8.3,0c0.2,0,0.4,0.1,0.5,0.2c0.1,0.1,0.2,0.3,0.2,0.5
						c0,0.2-0.1,0.4-0.2,0.6C28.1,30.2,27.9,30.2,27.7,30.2z M18.6,10.4c-0.1,0-0.1,0-0.2,0.1c0,0-0.1,0.1-0.1,0.2v18.9
						c0,0.1,0,0.1,0.1,0.2c0,0,0.1,0.1,0.2,0.1h9.1c0.1,0,0.1,0,0.2-0.1c0,0,0.1-0.1,0.1-0.2c0-0.1,0-0.1-0.1-0.1
						c0,0-0.1-0.1-0.2-0.1l-8.8,0V10.6c0-0.1,0-0.2-0.1-0.2C18.7,10.4,18.7,10.4,18.6,10.4z"/>
				</g>
				<g>
					<path class="st1" d="M45.4,12.1v17.4c0,0.1,0,0.3-0.1,0.4C45.1,29.9,45,30,44.9,30c-0.1,0-0.3,0-0.3-0.1
						c-0.1-0.1-0.1-0.2-0.1-0.4V10.6c0-0.1,0-0.3,0.1-0.4c0.1-0.1,0.2-0.1,0.3-0.1c0,0,0.1,0,0.2,0c0,0,0,0,0,0l0.1,0
						c0.1,0,0.1,0.1,0.1,0.1l12.2,17.6V10.6c0-0.1,0-0.3,0.1-0.4c0.1-0.1,0.2-0.1,0.4-0.1c0.1,0,0.3,0,0.4,0.1
						c0.1,0.1,0.1,0.2,0.1,0.4v18.9c0,0.1,0,0.3-0.1,0.4C58.3,29.9,58.1,30,58,30h0c-0.1,0-0.2,0-0.3-0.1c0,0-0.1-0.1-0.1-0.1
						L45.4,12.1z"/>
					<path class="st1" d="M58,30.2L58,30.2c-0.2,0-0.4-0.1-0.5-0.2l0,0c-0.1-0.1-0.1-0.1-0.1-0.1L45.7,13v16.5
						c0,0.2-0.1,0.4-0.2,0.5c-0.3,0.3-0.8,0.3-1.1,0c-0.2-0.1-0.2-0.3-0.2-0.5V10.6c0-0.2,0.1-0.4,0.2-0.6c0.1-0.1,0.3-0.2,0.5-0.2
						c0.1,0,0.1,0,0.2,0c0.1,0,0.1,0,0.1,0.1l0.1,0c0.1,0.1,0.1,0.1,0.2,0.1l0,0l11.7,16.9V10.6c0-0.2,0.1-0.4,0.2-0.6
						c0.1-0.1,0.3-0.2,0.6-0.2c0.2,0,0.4,0.1,0.5,0.2c0.1,0.1,0.2,0.3,0.2,0.5v18.9c0,0.2-0.1,0.4-0.2,0.5
						C58.4,30.2,58.2,30.2,58,30.2z M57.8,29.7c0.1,0,0.1,0,0.1,0h0c0.1,0,0.1,0,0.2-0.1c0,0,0.1-0.1,0.1-0.2V10.6
						c0-0.1,0-0.1-0.1-0.2c-0.1-0.1-0.2-0.1-0.3,0c0,0-0.1,0.1-0.1,0.2v18.2L45.1,10.5c0,0,0,0-0.1-0.1l-0.1,0c-0.1,0-0.1,0-0.1,0
						c-0.1,0-0.1,0-0.2,0.1c0,0-0.1,0.1-0.1,0.2v18.9c0,0.1,0,0.1,0.1,0.2c0.1,0.1,0.3,0.1,0.4,0c0,0,0.1-0.1,0.1-0.2V11.3
						L57.8,29.7C57.8,29.7,57.8,29.7,57.8,29.7z"/>
				</g>
				<g>
					<path class="st1" d="M62.9,20.6l11.5-10.3c0.1-0.1,0.2-0.2,0.4-0.1c0.1,0,0.2,0.1,0.3,0.2c0.1,0.1,0.1,0.2,0.1,0.4
						c0,0.1-0.1,0.3-0.2,0.4l-7.8,7.1l7.4,11.1c0.1,0.1,0.1,0.3,0.1,0.4c0,0.1-0.1,0.2-0.2,0.3C74.4,30,74.3,30,74.1,30
						c-0.1,0-0.2-0.1-0.3-0.2l-7.4-11l-3.5,3.2v7.5c0,0.1,0,0.3-0.1,0.4c-0.1,0.1-0.2,0.1-0.4,0.1c-0.1,0-0.3,0-0.3-0.1
						c-0.1-0.1-0.1-0.2-0.1-0.4V10.6c0-0.1,0-0.3,0.1-0.4c0.1-0.1,0.2-0.1,0.3-0.1c0.1,0,0.3,0,0.4,0.1c0.1,0.1,0.1,0.2,0.1,0.4
						V20.6z"/>
					<path class="st1" d="M74.2,30.3c0,0-0.1,0-0.1,0c-0.2,0-0.4-0.1-0.5-0.3l-7.2-10.7l-3.2,2.9v7.4c0,0.2-0.1,0.4-0.2,0.5
						c-0.3,0.3-0.8,0.3-1.1,0c-0.2-0.1-0.2-0.3-0.2-0.5V10.6c0-0.2,0.1-0.4,0.2-0.6c0.3-0.3,0.8-0.3,1.1,0c0.2,0.1,0.2,0.3,0.2,0.6
						V20l11-9.9c0.2-0.2,0.4-0.2,0.6-0.2c0.2,0,0.4,0.1,0.5,0.2c0.1,0.2,0.2,0.4,0.2,0.6c0,0.2-0.1,0.4-0.3,0.6l-7.7,6.9L74.8,29
						c0.1,0.2,0.2,0.4,0.1,0.6c0,0.2-0.1,0.4-0.3,0.5C74.5,30.2,74.4,30.3,74.2,30.3z M66.5,18.4L74,29.6c0.1,0.1,0.1,0.1,0.1,0.1
						c0.1,0,0.1,0,0.2,0c0,0,0.1-0.1,0.1-0.2c0,0,0-0.1-0.1-0.2L66.9,18l8-7.2c0.1-0.1,0.1-0.1,0.1-0.2c0-0.1,0-0.1-0.1-0.2
						c-0.1-0.1-0.1-0.1-0.2-0.1c0,0-0.1,0-0.2,0.1L62.7,21.2V10.6c0-0.1,0-0.1-0.1-0.2c-0.1-0.1-0.2-0.1-0.3,0c0,0-0.1,0.1-0.1,0.2
						v18.9c0,0.1,0,0.1,0.1,0.2c0.1,0.1,0.3,0.1,0.4,0c0,0,0.1-0.1,0.1-0.2v-7.7L66.5,18.4z"/>
				</g>
				<g>
					<path class="st1" d="M89.8,23.2H80l-2.8,6.5c-0.1,0.1-0.1,0.2-0.3,0.3c-0.1,0.1-0.3,0.1-0.4,0c-0.1-0.1-0.2-0.1-0.3-0.3
						c0-0.1,0-0.3,0-0.4l8.1-18.9c0.1-0.2,0.3-0.3,0.5-0.3c0.2,0,0.4,0.1,0.5,0.3l8.1,18.9c0.1,0.1,0.1,0.3,0,0.4
						c0,0.1-0.1,0.2-0.2,0.3C93.1,30,93,30,92.9,30c-0.1,0-0.2-0.1-0.3-0.3L89.8,23.2z M80.4,22.2h9l-4.5-10.5L80.4,22.2z"/>
					<path class="st1" d="M93.1,30.3c-0.1,0-0.2,0-0.3,0c-0.2-0.1-0.4-0.2-0.4-0.4l-2.7-6.3h-9.5l-2.7,6.3c-0.1,0.2-0.2,0.3-0.4,0.4
						c-0.2,0.1-0.4,0.1-0.6,0c-0.2-0.1-0.4-0.2-0.4-0.5c-0.1-0.2,0-0.4,0-0.6l8.1-18.9c0.1-0.3,0.4-0.5,0.7-0.5
						c0.3,0,0.6,0.2,0.7,0.5l8.1,18.9c0.1,0.2,0.1,0.4,0,0.6c-0.1,0.2-0.2,0.4-0.4,0.4C93.3,30.2,93.2,30.3,93.1,30.3z M79.8,22.9
						H90l2.9,6.7c0,0.1,0.1,0.1,0.1,0.1c0.1,0,0.1,0,0.2,0c0,0,0.1,0,0.1-0.1c0-0.1,0-0.1,0-0.2l-8.1-18.9c0-0.1-0.1-0.2-0.2-0.2
						c-0.1,0-0.2,0-0.2,0.2l-8.1,18.9c0,0.1,0,0.1,0,0.2c0,0.1,0,0.1,0.1,0.1c0.1,0,0.2,0,0.2,0c0.1,0,0.1-0.1,0.1-0.1L79.8,22.9z
						 M89.8,22.4H80L84.9,11L89.8,22.4z M80.8,21.9H89l-4.1-9.6L80.8,21.9z"/>
				</g>
				<g>
					<path class="st1" d="M94.5,20c0,1.3,0.2,2.5,0.7,3.6c0.5,1.1,1.1,2.1,1.9,2.9c0.8,0.8,1.8,1.5,2.9,2c1.1,0.5,2.3,0.7,3.6,0.7
						c1.1,0,2.1-0.2,3-0.5c0.9-0.3,1.7-0.8,2.4-1.4c0.7-0.6,1.3-1.3,1.8-2.2c0.5-0.9,0.8-1.8,1-2.8h-6c-0.1,0-0.3,0-0.4-0.1
						c-0.1-0.1-0.1-0.2-0.1-0.4c0-0.1,0-0.3,0.1-0.3c0.1-0.1,0.2-0.1,0.4-0.1h6.6c0.2,0,0.3,0,0.4,0.1c0.1,0.1,0.2,0.2,0.2,0.4
						c-0.2,1.2-0.5,2.3-1,3.4c-0.5,1-1.2,1.9-2,2.7c-0.8,0.8-1.8,1.3-2.8,1.8c-1.1,0.4-2.2,0.6-3.5,0.6c-1.4,0-2.7-0.3-4-0.8
						c-1.2-0.5-2.3-1.3-3.2-2.2c-0.9-0.9-1.6-2-2.2-3.2c-0.5-1.2-0.8-2.5-0.8-3.9c0-1.4,0.3-2.7,0.8-3.9c0.5-1.2,1.2-2.3,2.1-3.2
						c0.9-0.9,2-1.7,3.2-2.2c1.2-0.5,2.6-0.8,4-0.8c1.3,0,2.6,0.3,3.8,0.8c1.2,0.5,2.4,1.3,3.4,2.3c0.1,0.1,0.2,0.2,0.2,0.4
						c0,0.1-0.1,0.2-0.1,0.3c-0.1,0.1-0.2,0.1-0.4,0.1c-0.1,0-0.3,0-0.4-0.2c-0.9-0.9-1.9-1.6-3-2c-1.1-0.5-2.3-0.7-3.5-0.7
						c-1.2,0-2.4,0.2-3.5,0.7c-1.1,0.5-2.1,1.1-2.9,1.9c-0.8,0.8-1.5,1.8-2,2.9C94.7,17.6,94.5,18.8,94.5,20z"/>
					<path class="st1" d="M103.5,30.4c-1.4,0-2.8-0.3-4.1-0.8c-1.3-0.5-2.4-1.3-3.3-2.2c-0.9-0.9-1.7-2-2.2-3.3
						c-0.5-1.3-0.8-2.6-0.8-4c0-1.4,0.3-2.8,0.8-4c0.5-1.3,1.3-2.4,2.2-3.3c0.9-0.9,2-1.7,3.3-2.3c1.3-0.6,2.6-0.8,4.1-0.8
						c1.4,0,2.7,0.3,3.9,0.8c1.3,0.5,2.4,1.3,3.5,2.3c0.2,0.2,0.2,0.4,0.2,0.6c0,0.2-0.1,0.4-0.2,0.5l0,0c-0.2,0.1-0.3,0.2-0.5,0.2
						c-0.1,0-0.4,0-0.6-0.2c-0.9-0.9-1.9-1.5-3-2c-1.1-0.4-2.2-0.7-3.4-0.7c-1.2,0-2.3,0.2-3.4,0.7c-1.1,0.5-2,1.1-2.8,1.9
						c-0.8,0.8-1.4,1.7-1.9,2.8c-0.5,1.1-0.7,2.2-0.7,3.5c0,1.2,0.2,2.4,0.7,3.5c0.5,1.1,1.1,2,1.9,2.8c0.8,0.8,1.7,1.4,2.8,1.9
						c1.1,0.5,2.2,0.7,3.4,0.7c1.1,0,2-0.2,2.9-0.5c0.9-0.3,1.7-0.8,2.4-1.4c0.7-0.6,1.3-1.3,1.7-2.1c0.4-0.7,0.7-1.5,0.9-2.4h-5.7
						c-0.2,0-0.4-0.1-0.6-0.2c-0.1-0.1-0.2-0.3-0.2-0.5c0-0.2,0.1-0.4,0.2-0.5c0.1-0.2,0.3-0.2,0.6-0.2h6.6c0.2,0,0.4,0.1,0.6,0.2
						c0.2,0.1,0.3,0.3,0.3,0.6c-0.2,1.2-0.5,2.4-1.1,3.5c-0.5,1.1-1.2,2-2.1,2.8c-0.8,0.8-1.8,1.4-2.9,1.8
						C106,30.2,104.8,30.4,103.5,30.4z M103.5,10.2c-1.4,0-2.7,0.3-3.9,0.8c-1.2,0.5-2.2,1.2-3.1,2.1c-0.9,0.9-1.6,2-2.1,3.2
						c-0.5,1.2-0.8,2.5-0.8,3.8c0,1.4,0.3,2.6,0.8,3.8c0.5,1.2,1.2,2.2,2.1,3.1c0.9,0.9,1.9,1.6,3.1,2.1c1.2,0.5,2.5,0.8,3.9,0.8
						c1.2,0,2.4-0.2,3.4-0.6c1-0.4,2-1,2.7-1.7c0.8-0.7,1.4-1.6,1.9-2.6c0.5-1,0.8-2.1,1-3.3c0,0,0-0.1-0.1-0.1
						c-0.1-0.1-0.1-0.1-0.2-0.1h-6.6c-0.1,0-0.1,0-0.2,0.1c0,0-0.1,0.1-0.1,0.2c0,0.1,0,0.1,0.1,0.2c0,0,0.1,0.1,0.2,0.1h6.3
						l-0.1,0.3c-0.2,1-0.6,2-1,2.9c-0.5,0.9-1.1,1.6-1.8,2.3c-0.7,0.6-1.6,1.1-2.5,1.5c-0.9,0.4-2,0.5-3.1,0.5
						c-1.3,0-2.5-0.2-3.7-0.7c-1.1-0.5-2.1-1.2-3-2c-0.8-0.8-1.5-1.8-2-3c-0.5-1.1-0.7-2.4-0.7-3.7c0-1.3,0.3-2.6,0.8-3.7
						c0.5-1.1,1.2-2.1,2-3c0.8-0.8,1.8-1.5,3-2c1.1-0.5,2.3-0.7,3.6-0.7c1.2,0,2.4,0.2,3.5,0.7c1.2,0.5,2.2,1.2,3.1,2.1
						c0.1,0.1,0.1,0.1,0.2,0.1c0.1,0,0.1,0,0.2-0.1c0-0.1,0.1-0.1,0.1-0.2c0,0,0-0.1-0.1-0.2c-1-1-2.1-1.7-3.3-2.2
						C106.1,10.4,104.8,10.2,103.5,10.2z"/>
				</g>
				<g>
					<path class="st1" d="M116.2,30c-0.1,0-0.3-0.1-0.3-0.2c-0.1-0.1-0.1-0.2-0.1-0.4V10.6c0-0.2,0.1-0.3,0.2-0.4
						c0.1-0.1,0.2-0.1,0.4-0.1h9.4c0.1,0,0.3,0,0.4,0.1c0.1,0.1,0.1,0.2,0.1,0.4c0,0.1,0,0.3-0.1,0.4c-0.1,0.1-0.2,0.1-0.4,0.1h-8.9
						v8.4h6.7c0.1,0,0.3,0,0.4,0.1c0.1,0.1,0.1,0.2,0.1,0.4c0,0.1,0,0.3-0.1,0.3c-0.1,0.1-0.2,0.1-0.4,0.1h-6.7V29h8.9
						c0.1,0,0.3,0,0.4,0.1c0.1,0.1,0.1,0.2,0.1,0.3c0,0.2,0,0.3-0.1,0.4c-0.1,0.1-0.2,0.1-0.4,0.1H116.2z"/>
					<path class="st1" d="M125.6,30.2l-9.5,0c-0.2,0-0.4-0.1-0.5-0.3c-0.1-0.2-0.2-0.3-0.2-0.5V10.6c0-0.2,0.1-0.4,0.3-0.6
						c0.2-0.1,0.3-0.2,0.5-0.2h9.4c0.2,0,0.4,0.1,0.5,0.2c0.1,0.1,0.2,0.3,0.2,0.5c0,0.2-0.1,0.4-0.2,0.5c-0.1,0.2-0.3,0.2-0.6,0.2
						H117v7.9h6.4c0.2,0,0.4,0.1,0.5,0.2c0.2,0.1,0.2,0.3,0.2,0.5c0,0.2-0.1,0.4-0.2,0.5c-0.1,0.1-0.3,0.2-0.5,0.2H117v7.9h8.6
						c0.2,0,0.4,0.1,0.5,0.2c0.1,0.1,0.2,0.3,0.2,0.5c0,0.2-0.1,0.4-0.2,0.6C126.1,30.2,125.9,30.2,125.6,30.2z M116.2,29.7h9.4
						c0.1,0,0.1,0,0.2-0.1c0,0,0.1-0.1,0.1-0.2c0-0.1,0-0.1-0.1-0.2c0,0-0.1-0.1-0.2-0.1h-9.2v-9h6.9c0.1,0,0.2,0,0.2-0.1
						c0,0,0.1-0.1,0.1-0.2c0-0.1,0-0.1-0.1-0.2c0,0-0.1-0.1-0.2-0.1h-6.9v-9h9.2c0.1,0,0.1,0,0.2-0.1c0,0,0.1-0.1,0.1-0.2
						c0-0.1,0-0.1-0.1-0.2s-0.1-0.1-0.2-0.1h-9.4c-0.1,0-0.2,0-0.2,0.1c0,0-0.1,0.1-0.1,0.2v18.8c0,0.1,0,0.2,0.1,0.2
						C116.1,29.7,116.1,29.7,116.2,29.7z"/>
				</g>
			</g>
		</g>
	</g>
	<g>
		<g>
			<path class="st2" d="M18.1,34.6h15.3c5,0,9.2,1,12.5,3c3.3,2,5.8,4.8,7.5,8.3c1.7,3.5,2.5,7.6,2.5,12.1c0,4.6-0.8,8.6-2.5,12.2
				c-1.7,3.5-4.1,6.3-7.5,8.3c-3.3,2-7.5,3-12.5,3H18.1V34.6z M30.4,45.5v25.1h1.8c2.3,0,4.2-0.6,5.7-1.7c1.5-1.1,2.7-2.6,3.5-4.5
				c0.8-1.9,1.2-4,1.2-6.4c0-2.4-0.4-4.5-1.2-6.4c-0.8-1.9-1.9-3.4-3.5-4.5c-1.5-1.1-3.5-1.7-5.7-1.7H30.4z"/>
			<path class="st2" d="M60,34.6h12.4v47H60V34.6z"/>
			<path class="st2" d="M78.6,34.6h20.2c2.8,0,5.3,0.6,7.4,1.8c2.2,1.2,3.9,2.9,5.1,5c1.2,2.2,1.9,4.8,1.9,7.8c0,3-0.5,5.4-1.5,7.3
				c-1,1.9-2.2,3.3-3.7,4.2c-1.4,0.9-2.7,1.5-3.9,1.7l11.3,19.2h-13.9l-9.9-18.2h-0.6v18.2H78.6V34.6z M91.1,54.9h3.3
				c1.5,0,2.9-0.4,4.2-1.1c1.3-0.7,1.9-2.1,1.9-4.2c0-2.1-0.6-3.5-1.9-4.2c-1.2-0.7-2.6-1.1-4.1-1.1h-3.5V54.9z"/>
			<path class="st2" d="M118.1,34.6H149v10.8h-18.5v7.4h18.4v10.4h-18.4v7.5H149v10.8h-30.9V34.6z"/>
			<path class="st2" d="M178.5,70.2c1.9,0,3.6-0.3,5.3-0.9c1.7-0.6,2.9-1.1,3.8-1.7l5.3,10.5c-1.1,0.9-3,1.9-5.8,2.9
				c-2.7,1-5.9,1.5-9.6,1.5c-3.5,0-6.7-0.6-9.8-1.8c-3.1-1.2-5.8-2.9-8.1-5.1c-2.4-2.2-4.2-4.8-5.5-7.7s-2-6.2-2-9.7
				c0-3.5,0.7-6.7,2-9.7c1.3-3,3.2-5.6,5.5-7.8c2.4-2.2,5.1-3.9,8.1-5.1c3.1-1.2,6.3-1.8,9.8-1.8c3.7,0,6.9,0.5,9.6,1.5
				c2.7,1,4.6,1.9,5.8,2.9l-5.3,10.5c-0.9-0.6-2.1-1.1-3.8-1.7c-1.7-0.6-3.4-0.9-5.3-0.9c-2.3,0-4.3,0.3-6,1c-1.7,0.7-3,1.6-4,2.8
				c-1,1.2-1.8,2.5-2.3,3.9c-0.5,1.4-0.7,2.9-0.7,4.3c0,1.5,0.2,3,0.7,4.4c0.5,1.4,1.3,2.7,2.3,3.9c1,1.2,2.4,2.1,4,2.8
				C174.1,69.8,176.1,70.2,178.5,70.2z"/>
			<path class="st2" d="M205.6,45.4H195V34.6h33.6v10.8H218v36.2h-12.4V45.4z"/>
		</g>
		<g>
			<path class="st3" d="M254.2,54.2h-18c-0.3,0-0.5-0.2-0.5-0.5v-18c0-0.3,0.2-0.5,0.5-0.5h18c0.3,0,0.5,0.2,0.5,0.5v18
				C254.7,53.9,254.5,54.2,254.2,54.2z"/>
			<g>
				<path class="st3" d="M275.3,35.1h-15.4c-0.5,0-1,0.4-1,1v6.4c0,0.5,0.4,1,1,1h13c0.5,0,0.8,0.4,0.8,0.8v27.5
					c0,0.5-0.4,0.8-0.8,0.8h-27.5c-0.5,0-0.8-0.4-0.8-0.8V59.4c0-0.6-0.4-1-1-1h-6.9c-0.6,0-1,0.4-1,1v15.4c0,3.8,3.1,6.9,6.9,6.9
					h32.8c3.8,0,6.9-3.1,6.9-6.9V42C282.2,38.2,279.1,35.1,275.3,35.1z"/>
			</g>
		</g>
	</g>
</g>
</svg>
