<?xml version="1.0" encoding="utf-8"?>
<!-- Generator: Adobe Illustrator 29.6.1, SVG Export Plug-In . SVG Version: 9.03 Build 0)  -->
<svg version="1.0" id="Layer_1" xmlns="http://www.w3.org/2000/svg" xmlns:xlink="http://www.w3.org/1999/xlink" x="0px" y="0px"
	 viewBox="0 0 300 64" style="enable-background:new 0 0 300 64;" xml:space="preserve">
<style type="text/css">
	.st0{fill:#BF993F;}
	.st1{fill:#082323;}
</style>
<g>
	<g>
		<path class="st0" d="M6,6.7h16.7c5.5,0,10,1.1,13.6,3.3c3.6,2.2,6.3,5.2,8.1,9.1s2.7,8.3,2.7,13.2c0,5-0.9,9.4-2.7,13.3
			s-4.5,6.9-8.1,9.1c-3.6,2.2-8.1,3.3-13.6,3.3H6V6.7z M19.5,18.6V46h2c2.5,0,4.6-0.6,6.2-1.8c1.7-1.2,2.9-2.8,3.8-4.9
			c0.9-2.1,1.3-4.4,1.3-7c0-2.6-0.4-4.9-1.3-7c-0.9-2.1-2.1-3.7-3.8-4.9c-1.7-1.2-3.8-1.8-6.3-1.8H19.5z"/>
		<path class="st0" d="M51.7,6.7h13.5V58H51.7V6.7z"/>
		<path class="st0" d="M72.1,6.7h22.1c3.1,0,5.8,0.6,8.1,1.9s4.2,3.1,5.6,5.5c1.4,2.4,2,5.2,2,8.5c0,3.3-0.6,5.9-1.7,8
			c-1.1,2-2.4,3.6-4,4.6c-1.6,1-3,1.6-4.3,1.9L112.3,58H97.1L86.3,38.1h-0.7V58H72.1V6.7z M85.6,28.9h3.7c1.7,0,3.2-0.4,4.6-1.2
			c1.4-0.8,2.1-2.3,2.1-4.6c0-2.3-0.7-3.8-2-4.6c-1.4-0.8-2.9-1.2-4.5-1.2h-3.8V28.9z"/>
		<path class="st0" d="M115.1,6.7h33.7v11.8h-20.2v8.1h20.1V38h-20.1v8.2h20.2V58h-33.7V6.7z"/>
		<path class="st0" d="M180.9,45.5c2,0,4-0.3,5.8-0.9c1.8-0.6,3.2-1.2,4.2-1.9l5.7,11.5c-1.2,1-3.3,2.1-6.3,3.1
			c-3,1.1-6.5,1.6-10.5,1.6c-3.8,0-7.3-0.7-10.7-2c-3.3-1.3-6.3-3.2-8.9-5.6c-2.6-2.4-4.6-5.2-6-8.4s-2.2-6.7-2.2-10.5
			c0-3.8,0.7-7.3,2.2-10.6s3.5-6.1,6-8.5c2.6-2.4,5.5-4.3,8.9-5.6c3.4-1.3,6.9-2,10.7-2c4,0,7.5,0.5,10.5,1.6s5.1,2.1,6.3,3.1
			L190.9,22c-1-0.6-2.3-1.2-4.2-1.9c-1.8-0.6-3.7-0.9-5.8-0.9c-2.5,0-4.7,0.4-6.5,1.1c-1.8,0.8-3.3,1.8-4.4,3
			c-1.1,1.3-2,2.7-2.5,4.2c-0.5,1.6-0.8,3.1-0.8,4.7c0,1.6,0.3,3.2,0.8,4.8c0.5,1.6,1.4,3,2.5,4.3c1.1,1.3,2.6,2.3,4.4,3
			C176.2,45.1,178.4,45.5,180.9,45.5z"/>
		<path class="st0" d="M210.5,18.5H199V6.7h36.7v11.8H224V58h-13.5V18.5z"/>
	</g>
	<g>
		<path class="st1" d="M263.6,25.9h-19.8c-0.3,0-0.5-0.2-0.5-0.5V5.6c0-0.3,0.2-0.5,0.5-0.5h19.8c0.3,0,0.5,0.2,0.5,0.5v19.8
			C264.1,25.7,263.9,25.9,263.6,25.9z"/>
		<g>
			<path class="st1" d="M286.5,5.1h-16.8c-0.6,0-1.1,0.5-1.1,1.1v7c0,0.6,0.5,1.1,1.1,1.1h14.2c0.5,0,0.9,0.4,0.9,0.9v30
				c0,0.5-0.4,0.9-0.9,0.9h-30c-0.5,0-0.9-0.4-0.9-0.9V31.6c0-0.6-0.5-1.1-1.1-1.1h-7.5c-0.6,0-1.1,0.5-1.1,1.1v16.8
				c0,4.1,3.4,7.5,7.5,7.5h35.7c4.1,0,7.5-3.4,7.5-7.5V12.6C294,8.5,290.7,5.1,286.5,5.1z"/>
		</g>
	</g>
</g>
</svg>
