<?xml version="1.0" encoding="utf-8"?>
<!-- Generator: Adobe Illustrator 29.6.1, SVG Export Plug-In . SVG Version: 9.03 Build 0)  -->
<svg version="1.0" id="Layer_1" xmlns="http://www.w3.org/2000/svg" xmlns:xlink="http://www.w3.org/1999/xlink" x="0px" y="0px"
	 viewBox="0 0 300 64" style="enable-background:new 0 0 300 64;" xml:space="preserve">
<style type="text/css">
	.st0{fill:#C79C3E;}
	.st1{fill:#F0EFEF;}
	.st2{fill:#BF993F;}
</style>
<g>
	<g>
		<g>
			<g>
				<path class="st0" d="M21.3,7.9v4.8c0,1.3-1.1,2.4-2.4,2.4h-1.6v-1.6h1.5c0.5,0,0.9-0.4,0.9-0.9V7.8c0-0.5-0.4-0.9-0.9-0.9h-1.5
					c-0.5,0-0.9,0.4-0.9,0.9v1.7c-0.6,0.2-1.2,0.5-1.6,1V7.8c0-1.3,1.1-2.4,2.4-2.4h1.6C20.2,5.5,21.3,6.6,21.3,7.9L21.3,7.9z
					 M19.6,15.9v1.7c0,0.5-0.4,0.9-0.9,0.9h-1.6c-0.5,0-0.9-0.4-0.9-0.9v-4.8c0-0.5,0.4-0.9,0.9-0.9h1.7v-1.6h-1.6
					c-1.3,0-2.4,1.1-2.4,2.4v4.8c0,1.3,1.1,2.4,2.4,2.4h1.6c1.3,0,2.4-1.1,2.4-2.4v-2.7C20.8,15.4,20.3,15.7,19.6,15.9L19.6,15.9z"
					/>
			</g>
		</g>
		<g>
			<g>
				<g>
					<path class="st1" d="M4.9,19.3h6.7c0.1,0,0.2,0,0.3,0.1s0.1,0.2,0.1,0.2c0,0.2,0,0.2-0.1,0.3s-0.2,0.2-0.3,0.2h-7H4.6
						c-0.1,0-0.2,0-0.2-0.1c-0.1-0.1-0.1-0.2-0.1-0.3V5.1c0-0.2,0-0.2,0.1-0.3c0.1-0.1,0.2-0.1,0.2-0.1c0.1,0,0.2,0,0.3,0.1
						s0.1,0.2,0.1,0.3V19.3z"/>
					<path class="st1" d="M11.6,20.2H4.6c-0.2,0-0.3-0.1-0.4-0.2C4,20,4,19.9,4,19.7V5.1c0-0.2,0.1-0.3,0.2-0.5
						c0.2-0.2,0.6-0.2,0.9,0c0.1,0.1,0.2,0.2,0.2,0.5v14h6.4c0.2,0,0.3,0.1,0.4,0.2s0.2,0.2,0.2,0.4s-0.1,0.3-0.2,0.5
						C11.9,20.2,11.8,20.2,11.6,20.2z M4.6,4.9c-0.1,0-0.1,0-0.2,0.1c0,0-0.1,0.1-0.1,0.2v14.6c0,0.1,0,0.1,0.1,0.2
						c0,0,0.1,0.1,0.2,0.1h7.1c0.1,0,0.1,0,0.2-0.1c0,0,0.1-0.1,0.1-0.2s0-0.1-0.1-0.1c0,0-0.1-0.1-0.2-0.1H4.8V5.1
						c0-0.1,0-0.2-0.1-0.2C4.6,4.9,4.6,4.9,4.6,4.9z"/>
				</g>
				<g>
					<path class="st1" d="M25.3,6.2v13.5c0,0.1,0,0.2-0.1,0.3c-0.2,0-0.2,0.1-0.3,0.1c-0.1,0-0.2,0-0.2-0.1
						c-0.1-0.1-0.1-0.2-0.1-0.3V5.1c0-0.1,0-0.2,0.1-0.3c0.1-0.1,0.2-0.1,0.2-0.1c0,0,0.1,0,0.2,0l0,0h0.1c0.1,0,0.1,0.1,0.1,0.1
						l9.5,13.6V5.1c0-0.1,0-0.2,0.1-0.3c0.1-0.1,0.2-0.1,0.3-0.1c0.1,0,0.2,0,0.3,0.1s0.1,0.2,0.1,0.3v14.6c0,0.1,0,0.2-0.1,0.3
						c-0.1,0-0.2,0.1-0.3,0.1l0,0c-0.1,0-0.2,0-0.2-0.1l-0.1-0.1L25.3,6.2z"/>
					<path class="st1" d="M35.1,20.2L35.1,20.2c-0.2,0-0.3-0.1-0.4-0.2l0,0C34.6,20,34.6,20,34.6,20L25.6,6.9v12.8
						c0,0.2-0.1,0.3-0.2,0.4c-0.2,0.2-0.6,0.2-0.9,0c-0.2-0.1-0.2-0.2-0.2-0.4V5.1c0-0.2,0.1-0.3,0.2-0.5c0.1-0.1,0.2-0.2,0.4-0.2
						c0.1,0,0.1,0,0.2,0c0.1,0,0.1,0,0.1,0.1h0.1c0.1,0.1,0.1,0.1,0.2,0.1l0,0l9.1,13.1V5.1c0-0.2,0.1-0.3,0.2-0.5
						c0.1-0.1,0.2-0.2,0.5-0.2c0.2,0,0.3,0.1,0.4,0.2c0.1,0.1,0.2,0.2,0.2,0.4v14.6c0,0.2-0.1,0.3-0.2,0.4
						C35.4,20.2,35.2,20.2,35.1,20.2z M34.9,19.9C35,19.9,35,19.9,34.9,19.9L34.9,19.9c0.2,0,0.2,0,0.2-0.1c0,0,0.1-0.1,0.1-0.2V5.1
						c0-0.1,0-0.1-0.1-0.2c-0.1-0.1-0.2-0.1-0.2,0c0,0-0.1,0.1-0.1,0.2v14.1L25.1,5c0,0,0,0-0.1-0.1h-0.1c-0.1,0-0.1,0-0.1,0
						c-0.1,0-0.1,0-0.2,0.1c0,0-0.1,0.1-0.1,0.2v14.6c0,0.1,0,0.1,0.1,0.2s0.2,0.1,0.3,0c0,0,0.1-0.1,0.1-0.2V5.6L34.9,19.9
						L34.9,19.9z"/>
				</g>
				<g>
					<path class="st1" d="M38.9,12.8l8.9-8c0.1-0.1,0.2-0.2,0.3-0.1c0.1,0,0.2,0.1,0.2,0.2c0.1,0.1,0.1,0.2,0.1,0.3
						c0,0.1-0.1,0.2-0.2,0.3l-6,5.5l5.7,8.6c0.1,0.1,0.1,0.2,0.1,0.3s-0.1,0.2-0.2,0.2c-0.1-0.1-0.2-0.1-0.3-0.1
						c-0.1,0-0.2-0.1-0.2-0.2l-5.7-8.5l-2.7,2.5v5.8c0,0.1,0,0.2-0.1,0.3s-0.2,0.1-0.3,0.1c-0.1,0-0.2,0-0.2-0.1
						c-0.1-0.1-0.1-0.2-0.1-0.3V5.1c0-0.1,0-0.2,0.1-0.3c0.1-0.1,0.2-0.1,0.2-0.1s0.2,0,0.3,0.1s0.1,0.2,0.1,0.3
						C38.9,5.1,38.9,12.8,38.9,12.8z"/>
					<path class="st1" d="M47.6,20.3L47.6,20.3c-0.2,0-0.4-0.1-0.5-0.2l-5.6-8.3L39.1,14v5.7c0,0.2-0.1,0.3-0.2,0.4
						c-0.2,0.2-0.6,0.2-0.9,0C38,20.1,38,19.9,38,19.8V5.1c0-0.2,0.1-0.3,0.2-0.5c0.2-0.2,0.6-0.2,0.9,0c0.2,0.1,0.2,0.2,0.2,0.5
						v7.3l8.5-7.7c0.2-0.2,0.3-0.2,0.5-0.2s0.3,0.1,0.4,0.2c0.1,0.2,0.2,0.3,0.2,0.5c0,0.2-0.1,0.3-0.2,0.5l-6,5.3l5.7,8.4
						c0.1,0.2,0.2,0.3,0.1,0.5c0,0.2-0.1,0.3-0.2,0.4C47.9,20.2,47.8,20.3,47.6,20.3z M41.7,11.1l5.8,8.7c0.1,0.1,0.1,0.1,0.1,0.1
						c0.1,0,0.1,0,0.2,0c0,0,0.1-0.1,0.1-0.2c0,0,0-0.1-0.1-0.2L42,10.8l6.2-5.6c0.1-0.1,0.1-0.1,0.1-0.2c0-0.1,0-0.1-0.1-0.2
						c-0.1-0.1-0.1-0.1-0.2-0.1c0,0-0.1,0-0.2,0.1l-9.1,8.4V5.1c0-0.1,0-0.1-0.1-0.2c-0.1-0.1-0.2-0.1-0.2,0c0,0-0.1,0.1-0.1,0.2
						v14.6c0,0.1,0,0.1,0.1,0.2c0.1,0.1,0.2,0.1,0.3,0c0,0,0.1-0.1,0.1-0.2v-6L41.7,11.1z"/>
				</g>
				<g>
					<path class="st1" d="M59.7,14.8h-7.6l-2.2,5c-0.1,0.1-0.1,0.2-0.2,0.2c-0.1,0.1-0.2,0.1-0.3,0c-0.1-0.1-0.2-0.1-0.2-0.2
						c0-0.1,0-0.2,0-0.3l6.3-14.6c0.1-0.2,0.2-0.2,0.4-0.2c0.2,0,0.3,0.1,0.4,0.2l6.3,14.6c0.1,0.1,0.1,0.2,0,0.3
						c0,0.1-0.1,0.2-0.2,0.2c-0.1,0-0.2,0-0.2,0c-0.1,0-0.2-0.1-0.2-0.2L59.7,14.8z M52.4,14h7l-3.5-8.1L52.4,14z"/>
					<path class="st1" d="M62.3,20.3c-0.1,0-0.2,0-0.2,0c-0.2-0.1-0.3-0.2-0.3-0.3l-2.1-4.9h-7.4L50.2,20c-0.1,0.2-0.2,0.2-0.3,0.3
						c-0.2,0.1-0.3,0.1-0.5,0c-0.2-0.1-0.3-0.2-0.3-0.4c-0.1-0.2,0-0.3,0-0.5l6.3-14.6c0.1-0.2,0.3-0.4,0.5-0.4
						c0.2,0,0.5,0.2,0.5,0.4l6.3,14.6c0.1,0.2,0.1,0.3,0,0.5s-0.2,0.3-0.3,0.3C62.4,20.2,62.4,20.3,62.3,20.3z M52,14.6h7.9l2.2,5.2
						c0,0.1,0.1,0.1,0.1,0.1c0.1,0,0.1,0,0.2,0c0,0,0.1,0,0.1-0.1s0-0.1,0-0.2L56.2,5c0-0.1-0.1-0.2-0.2-0.2c-0.1,0-0.2,0-0.2,0.2
						l-6.3,14.6c0,0.1,0,0.1,0,0.2s0,0.1,0.1,0.1c0.1,0,0.2,0,0.2,0c0.1,0,0.1-0.1,0.1-0.1L52,14.6z M59.7,14.2h-7.6l3.8-8.8
						L59.7,14.2z M52.7,13.8h6.4l-3.2-7.4L52.7,13.8z"/>
				</g>
				<g>
					<path class="st1" d="M63.4,12.3c0,1,0.2,1.9,0.5,2.8c0.4,0.9,0.9,1.6,1.5,2.2s1.4,1.2,2.2,1.5c0.9,0.4,1.8,0.5,2.8,0.5
						c0.9,0,1.6-0.2,2.3-0.4c0.7-0.2,1.3-0.6,1.9-1.1c0.5-0.5,1-1,1.4-1.7c0.4-0.7,0.6-1.4,0.8-2.2h-4.6c-0.1,0-0.2,0-0.3-0.1
						c-0.1-0.1-0.1-0.2-0.1-0.3c0-0.1,0-0.2,0.1-0.2c0.1-0.1,0.2-0.1,0.3-0.1h5.1c0.2,0,0.2,0,0.3,0.1c0.1,0.1,0.2,0.2,0.2,0.3
						c-0.2,0.9-0.4,1.8-0.8,2.6c-0.4,0.8-0.9,1.5-1.5,2.1c-0.6,0.6-1.4,1-2.2,1.4c-0.9,0.3-1.7,0.5-2.7,0.5c-1.1,0-2.1-0.2-3.1-0.6
						c-0.9-0.4-1.8-1-2.5-1.7c-0.7-0.7-1.2-1.5-1.7-2.5c-0.4-0.9-0.6-1.9-0.6-3s0.2-2.1,0.6-3c0.4-0.9,0.9-1.8,1.6-2.5
						c0.7-0.7,1.5-1.3,2.5-1.7c0.9-0.4,2-0.6,3.1-0.6c1,0,2,0.2,2.9,0.6c0.9,0.4,1.9,1,2.6,1.8c0.1,0.1,0.2,0.2,0.2,0.3
						c0,0.1-0.1,0.2-0.1,0.2c-0.1,0.1-0.2,0.1-0.3,0.1c-0.1,0-0.2,0-0.3-0.2c-0.7-0.7-1.5-1.2-2.3-1.5c-0.9-0.4-1.8-0.5-2.7-0.5
						c-0.9,0-1.9,0.2-2.7,0.5c-0.9,0.4-1.6,0.9-2.2,1.5c-0.6,0.6-1.2,1.4-1.5,2.2C63.5,10.5,63.4,11.4,63.4,12.3z"/>
					<path class="st1" d="M70.3,20.4c-1.1,0-2.2-0.2-3.2-0.6c-1-0.4-1.9-1-2.6-1.7c-0.7-0.7-1.3-1.5-1.7-2.6s-0.6-2-0.6-3.1
						s0.2-2.2,0.6-3.1c0.4-1,1-1.9,1.7-2.6c0.7-0.7,1.5-1.3,2.6-1.8c1-0.5,2-0.6,3.2-0.6c1.1,0,2.1,0.2,3,0.6c1,0.4,1.9,1,2.7,1.8
						c0.2,0.2,0.2,0.3,0.2,0.5c0,0.2-0.1,0.3-0.2,0.4l0,0c-0.2,0.1-0.2,0.2-0.4,0.2c-0.1,0-0.3,0-0.5-0.2c-0.7-0.7-1.5-1.2-2.3-1.5
						c-0.9-0.3-1.7-0.5-2.6-0.5c-0.9,0-1.8,0.2-2.6,0.5s-1.5,0.9-2.2,1.5S64.4,8.9,64,9.7c-0.4,0.9-0.5,1.7-0.5,2.7
						c0,0.9,0.2,1.9,0.5,2.7c0.4,0.9,0.9,1.5,1.5,2.2s1.3,1.1,2.2,1.5c0.9,0.4,1.7,0.5,2.6,0.5c0.9,0,1.5-0.2,2.2-0.4
						c0.7-0.2,1.3-0.6,1.9-1.1c0.5-0.5,1-1,1.3-1.6c0.3-0.5,0.5-1.2,0.7-1.9H72c-0.2,0-0.3-0.1-0.5-0.2c-0.1-0.1-0.2-0.2-0.2-0.4
						c0-0.2,0.1-0.3,0.2-0.4c0.1-0.2,0.2-0.2,0.5-0.2h5.1c0.2,0,0.3,0.1,0.5,0.2c0.2,0.1,0.2,0.2,0.2,0.5c-0.2,0.9-0.4,1.9-0.9,2.7
						c-0.4,0.9-0.9,1.5-1.6,2.2c-0.6,0.6-1.4,1.1-2.2,1.4C72.3,20.2,71.3,20.4,70.3,20.4z M70.3,4.7c-1.1,0-2.1,0.2-3,0.6
						c-0.9,0.4-1.7,0.9-2.4,1.6c-0.7,0.7-1.2,1.5-1.6,2.5c-0.4,0.9-0.6,1.9-0.6,2.9c0,1.1,0.2,2,0.6,2.9c0.4,0.9,0.9,1.7,1.6,2.4
						c0.7,0.7,1.5,1.2,2.4,1.6c0.9,0.4,1.9,0.6,3,0.6c0.9,0,1.9-0.2,2.6-0.5c0.8-0.3,1.5-0.8,2.1-1.3c0.6-0.5,1.1-1.2,1.5-2
						c0.4-0.8,0.6-1.6,0.8-2.6c0,0,0-0.1-0.1-0.1c-0.1-0.1-0.1-0.1-0.2-0.1H72c-0.1,0-0.1,0-0.2,0.1c0,0-0.1,0.1-0.1,0.2
						c0,0.1,0,0.1,0.1,0.2c0,0,0.1,0.1,0.2,0.1h4.9l-0.1,0.2c-0.2,0.8-0.5,1.5-0.8,2.2c-0.4,0.7-0.9,1.2-1.4,1.8
						c-0.5,0.5-1.2,0.9-1.9,1.2c-0.7,0.3-1.5,0.4-2.4,0.4c-1,0-1.9-0.2-2.9-0.5c-0.9-0.4-1.6-0.9-2.3-1.5c-0.6-0.6-1.2-1.4-1.5-2.3
						c-0.4-0.9-0.5-1.9-0.5-2.9c0-1,0.2-2,0.6-2.9C64,8.8,64.5,8,65.1,7.3c0.6-0.6,1.4-1.2,2.3-1.5c0.9-0.4,1.8-0.5,2.8-0.5
						c0.9,0,1.9,0.2,2.7,0.5c0.9,0.4,1.7,0.9,2.4,1.6c0.1,0.1,0.1,0.1,0.2,0.1c0.1,0,0.1,0,0.2-0.1c0-0.1,0.1-0.1,0.1-0.2
						c0,0,0-0.1-0.1-0.2c-0.8-0.8-1.6-1.3-2.6-1.7C72.3,4.9,71.3,4.7,70.3,4.7z"/>
				</g>
				<g>
					<path class="st1" d="M80.2,20.1c-0.1,0-0.2-0.1-0.2-0.2c-0.1-0.1-0.1-0.2-0.1-0.3V5.1c0-0.2,0.1-0.2,0.2-0.3
						c0.1-0.1,0.2-0.1,0.3-0.1h7.3c0.1,0,0.2,0,0.3,0.1S88,4.9,88,5.1c0,0.1,0,0.2-0.1,0.3c-0.1,0.1-0.2,0.1-0.3,0.1h-6.9V12h5.2
						c0.1,0,0.2,0,0.3,0.1s0.1,0.2,0.1,0.3c0,0.1,0,0.2-0.1,0.2c-0.1,0.1-0.2,0.1-0.3,0.1h-5.2v6.7h6.9c0.1,0,0.2,0,0.3,0.1
						s0.1,0.2,0.1,0.2c0,0.2,0,0.2-0.1,0.3S87.8,20,87.6,20L80.2,20.1L80.2,20.1z"/>
					<path class="st1" d="M87.5,20.2h-7.4c-0.2,0-0.3-0.1-0.4-0.2c-0.1-0.2-0.2-0.2-0.2-0.4V5.1c0-0.2,0.1-0.3,0.2-0.5
						c0.2-0.1,0.2-0.2,0.4-0.2h7.3c0.2,0,0.3,0.1,0.4,0.2C87.9,4.7,88,4.8,88,5s-0.1,0.3-0.2,0.4c-0.1,0.2-0.2,0.2-0.5,0.2h-6.6v6.1
						h5c0.2,0,0.3,0.1,0.4,0.2c0.2,0.1,0.2,0.2,0.2,0.4c0,0.2-0.1,0.3-0.2,0.4c-0.1,0.1-0.2,0.2-0.4,0.2h-5v6.1h6.7
						c0.2,0,0.3,0.1,0.4,0.2c0.1,0.1,0.2,0.2,0.2,0.4s-0.1,0.3-0.2,0.5C87.8,20.2,87.7,20.2,87.5,20.2z M80.2,19.9h7.3
						c0.1,0,0.1,0,0.2-0.1c0,0,0.1-0.1,0.1-0.2c0-0.1,0-0.1-0.1-0.2c0,0-0.1-0.1-0.2-0.1h-7.1v-7h5.3c0.1,0,0.2,0,0.2-0.1
						c0,0,0.1-0.1,0.1-0.2s0-0.1-0.1-0.2c0,0-0.1-0.1-0.2-0.1h-5.3V5h7.1c0.1,0,0.1,0,0.2-0.1c0,0,0.1-0.1,0.1-0.2
						c0-0.1,0-0.1-0.1-0.2c-0.1-0.1-0.1-0.1-0.2-0.1h-7.3c-0.1,0-0.2,0-0.2,0.1c0,0-0.1,0.1-0.1,0.2v14.6c0,0.1,0,0.2,0.1,0.2
						C80.1,19.9,80.1,19.9,80.2,19.9z"/>
				</g>
			</g>
		</g>
	</g>
	<g>
		<g>
			<path class="st2" d="M4.2,23.7H16c3.9,0,7.1,0.8,9.7,2.3c2.6,1.5,4.5,3.7,5.8,6.4c1.3,2.7,1.9,5.9,1.9,9.4c0,3.6-0.6,6.7-1.9,9.5
				c-1.3,2.7-3.2,4.9-5.8,6.4C23.2,59.2,19.9,60,16,60H4.2V23.7z M13.7,32.1v19.4h1.4c1.8,0,3.3-0.5,4.4-1.3c1.2-0.9,2.1-2,2.7-3.5
				c0.6-1.5,0.9-3.1,0.9-5s-0.3-3.5-0.9-5c-0.6-1.5-1.5-2.6-2.7-3.5c-1.2-0.9-2.7-1.3-4.4-1.3L13.7,32.1L13.7,32.1z"/>
			<path class="st2" d="M36.6,23.7h9.6v36.4h-9.6V23.7z"/>
			<path class="st2" d="M51,23.7h15.6c2.2,0,4.1,0.5,5.7,1.4c1.7,0.9,3,2.2,4,3.9c0.9,1.7,1.5,3.7,1.5,6s-0.4,4.2-1.2,5.7
				s-1.7,2.6-2.9,3.3c-1.1,0.7-2.1,1.2-3,1.3l8.8,14.9H68.8L61.1,46h-0.5v14.1H51V23.7z M60.7,39.4h2.6c1.2,0,2.2-0.3,3.3-0.9
				c1-0.5,1.5-1.6,1.5-3.3s-0.5-2.7-1.5-3.3c-0.9-0.5-2-0.9-3.2-0.9h-2.7L60.7,39.4L60.7,39.4z"/>
			<path class="st2" d="M81.6,23.7h23.9V32H91.3v5.7h14.3v8.1H91.3v5.8h14.3V60H81.6V23.7z"/>
			<path class="st2" d="M128.4,51.2c1.5,0,2.8-0.2,4.1-0.7c1.3-0.5,2.2-0.9,2.9-1.3l4.1,8.1c-0.9,0.7-2.3,1.5-4.5,2.2
				c-2.1,0.8-4.6,1.2-7.4,1.2c-2.7,0-5.2-0.5-7.6-1.4c-2.4-0.9-4.5-2.2-6.3-4c-1.9-1.7-3.3-3.7-4.3-6c-1-2.2-1.5-4.8-1.5-7.5
				c0-2.7,0.5-5.2,1.5-7.5s2.5-4.3,4.3-6c1.9-1.7,4-3,6.3-4c2.4-0.9,4.9-1.4,7.6-1.4c2.9,0,5.3,0.4,7.4,1.2s3.6,1.5,4.5,2.2
				l-4.1,8.1c-0.7-0.5-1.6-0.9-2.9-1.3c-1.3-0.5-2.6-0.7-4.1-0.7c-1.8,0-3.3,0.2-4.6,0.8s-2.3,1.2-3.1,2.2c-0.8,0.9-1.4,1.9-1.8,3
				c-0.4,1.1-0.5,2.2-0.5,3.3c0,1.2,0.2,2.3,0.5,3.4c0.4,1.1,1,2.1,1.8,3s1.9,1.6,3.1,2.2C125,50.9,126.6,51.2,128.4,51.2z"/>
			<path class="st2" d="M149.4,32h-8.2v-8.4h26V32H159v28h-9.6V32z"/>
		</g>
		<g>
			<path class="st1" d="M187.1,38.8h-13.9c-0.2,0-0.4-0.2-0.4-0.4V24.5c0-0.2,0.2-0.4,0.4-0.4h13.9c0.2,0,0.4,0.2,0.4,0.4v13.9
				C187.5,38.6,187.3,38.8,187.1,38.8z"/>
			<g>
				<path class="st1" d="M203.4,24h-11.9c-0.4,0-0.8,0.3-0.8,0.8v5c0,0.4,0.3,0.8,0.8,0.8h10.1c0.4,0,0.6,0.3,0.6,0.6v21.3
					c0,0.4-0.3,0.6-0.6,0.6h-21.3c-0.4,0-0.6-0.3-0.6-0.6v-9.6c0-0.5-0.3-0.8-0.8-0.8h-5.3c-0.5,0-0.8,0.3-0.8,0.8v11.9
					c0,2.9,2.4,5.3,5.3,5.3h25.4c2.9,0,5.3-2.4,5.3-5.3V29.4C208.8,26.4,206.4,24,203.4,24z"/>
			</g>
		</g>
	</g>
</g>
</svg>
